<?xml version="1.0" encoding="UTF-8"?>
<svg version="1.1" xmlns="http://www.w3.org/2000/svg" width="178" height="210">
<path d="M0 0 C58.74 0 117.48 0 178 0 C178 69.3 178 138.6 178 210 C119.26 210 60.52 210 0 210 C0 140.7 0 71.4 0 0 Z " fill="#FEFEFE" transform="translate(0,0)"/>
<path d="M0 0 C0.89074219 -0.01224609 1.78148438 -0.02449219 2.69921875 -0.03710938 C12.10495688 -0.05758631 20.52264499 1.68725129 29.1875 5.3125 C30.28155151 5.76665283 30.28155151 5.76665283 31.39770508 6.22998047 C37.86863448 9.03150217 43.30901413 12.70443418 48.75 17.1875 C49.801875 17.97125 50.85375 18.755 51.9375 19.5625 C65.71678964 32.42317033 75.1065353 50.22323027 76.19140625 69.11328125 C76.85866014 90.38867162 71.2588407 109.59548991 57.015625 125.80078125 C45.0546211 138.40108018 28.03070949 149.11958845 10.21728516 150.36450195 C-13.80433817 150.91413071 -33.21748877 146.61963194 -51.30859375 130.10546875 C-65.36467883 116.56846165 -74.14435669 97.4090609 -74.79321289 77.90966797 C-74.92385549 58.62417449 -69.33637473 40.71080999 -56.25 26.1875 C-55.44820312 25.29289062 -54.64640625 24.39828125 -53.8203125 23.4765625 C-39.36388398 8.18208016 -20.94282717 0.01489533 0 0 Z " fill="#103C4E" transform="translate(94.25,31.8125)"/>
<path d="M0 0 C4.8042147 3.39121037 4.8042147 3.39121037 6.1875 6.25 C5.8575 7.24 5.5275 8.23 5.1875 9.25 C2.20199929 8.81095578 0.10190279 8.20282426 -2.5625 6.734375 C-8.60424719 3.97492316 -16.06185956 4.09246498 -22.39453125 6.046875 C-25.05858499 7.3319473 -27.33218957 8.75308625 -29.39453125 10.88671875 C-30.8125 12.25 -30.8125 12.25 -32.8125 12.25 C-33.08191406 12.81203125 -33.35132812 13.3740625 -33.62890625 13.953125 C-35.31782455 17.23062982 -37.31147203 20.30463596 -39.27734375 23.421875 C-42.84808777 30.00003956 -44.37291292 35.75879756 -44.3125 43.25 C-44.30895508 44.04019531 -44.30541016 44.83039063 -44.30175781 45.64453125 C-44.15324616 50.83598193 -43.48589867 54.68546845 -40.296875 58.9375 C-36.43549896 62.35176934 -32.61267268 62.86469454 -27.59765625 62.75390625 C-18.25857247 61.06422629 -9.55178478 52.60932756 -4.26171875 45.02734375 C-3.54435547 44.14755859 -3.54435547 44.14755859 -2.8125 43.25 C-0.125 43 -0.125 43 2.1875 43.25 C2.0225 44.343125 1.8575 45.43625 1.6875 46.5625 C1.12031816 50.12525873 1.12031816 50.12525873 1.1875 53.25 C1.69539063 52.77949219 2.20328125 52.30898437 2.7265625 51.82421875 C9.49459376 45.70257249 14.23728763 42.67343086 23.5625 42.96484375 C28.20323919 43.46897167 30.99591075 44.89953218 34.0625 48.375 C35.92819139 53.14287798 36.31496391 57.65636902 34.23828125 62.43359375 C30.4259347 68.79552222 26.03600216 73.22391765 19.1875 76.25 C20.2703125 76.806875 20.2703125 76.806875 21.375 77.375 C25.21700967 79.93633978 28.09767513 83.07035025 30.1875 87.25 C31.24929416 94.23902488 29.92718515 99.19769001 26.03125 105.05078125 C23.20448748 108.422534 20.14762398 110.40677156 16.1875 112.25 C15.28 112.683125 14.3725 113.11625 13.4375 113.5625 C4.55527766 115.44143165 -2.89828227 114.72672922 -10.8125 110.25 C-10.4825 108.6 -10.1525 106.95 -9.8125 105.25 C-7.04973823 105.77268466 -4.4864124 106.35869587 -1.8125 107.25 C5.63309155 107.92286087 12.01210104 107.79621079 18.1875 103.25 C22.27167997 98.90232455 22.53116797 94.42946124 22.47265625 88.6953125 C22.06551087 85.20390147 20.78311409 83.55721252 18.1875 81.25 C15.00665345 79.289392 12.64697531 79.02738223 8.9375 79.125 C8.04546875 79.14304687 7.1534375 79.16109375 6.234375 79.1796875 C5.55890625 79.20289062 4.8834375 79.22609375 4.1875 79.25 C3.5625 76.875 3.5625 76.875 3.1875 74.25 C5.1875 72.25 5.1875 72.25 7.03515625 72.23046875 C7.76605469 72.29878906 8.49695313 72.36710937 9.25 72.4375 C14.87075469 72.5462888 18.80667669 70.70208877 23.1875 67.25 C26.75719973 63.46918899 27.4013741 59.92792709 27.4375 54.8125 C27.37399757 53.29070964 27.29753792 51.76913466 27.1875 50.25 C19.96743132 49.77220134 14.10480437 49.74215622 8.1875 54.25 C-3.00235022 64.67545818 -7.55185719 77.38841185 -12.0625 91.5625 C-12.85498151 94.01258061 -13.65090539 96.46151877 -14.44769287 98.91020203 C-14.93851575 100.42281249 -15.4262039 101.93644502 -15.91021729 103.45124817 C-17.08413786 107.11073854 -18.32821517 110.70425656 -19.8125 114.25 C-21.4625 114.25 -23.1125 114.25 -24.8125 114.25 C-24.36086557 105.92186116 -21.76031763 98.66812813 -18.9375 90.875 C-16.1653312 83.14472284 -13.45840397 75.45930633 -11.40454102 67.50219727 C-10.66935935 64.70547525 -9.77083197 61.97756023 -8.8125 59.25 C-9.76125 60.1575 -10.71 61.065 -11.6875 62 C-17.99971765 67.35966971 -25.11828257 70.02406048 -33.42578125 69.6328125 C-38.94652399 68.74732512 -42.62629859 66.38348135 -46.625 62.5625 C-52.45461849 53.73479201 -53.20514923 44.25469405 -51.15625 33.94921875 C-47.2831724 20.00947824 -39.95925851 8.10873634 -27.3125 0.75 C-19.06317891 -3.08153746 -8.4254564 -3.87912357 0 0 Z " fill="#9BD9C2" transform="translate(102.8125,44.75)"/>
<path d="M0 0 C3.88019859 1.25844278 5.9411842 2.42416203 8 6 C8 6.99 8 7.98 8 9 C8.66 9 9.32 9 10 9 C10.12375 8.21625 10.2475 7.4325 10.375 6.625 C11 4 11 4 13 2 C13 4.64 13 7.28 13 10 C13.66 10 14.32 10 15 10 C15 12.31 15 14.62 15 17 C16.32 16.67 17.64 16.34 19 16 C18.67 18.97 18.34 21.94 18 25 C17.34 24.67 16.68 24.34 16 24 C14.68733467 25.31266533 13.39466087 26.64569507 12.125 28 C10 30 10 30 8.0625 30.8125 C4.76857169 32.70900418 3.04716853 35.86212693 1 39 C1 36 1 36 2.9375 33.375 C5.46547535 29.23831306 6.38338802 25.84463049 6 21 C4.35880914 17.70472904 4.35880914 17.70472904 2 15 C-1 10.28571429 -1 10.28571429 -1 8 C2.36591866 9.44253657 4.51047079 11.33264727 7 14 C5.94140805 10.72798851 4.62561432 8.42527118 2.375 5.875 C0 3 0 3 0 0 Z " fill="#204952" transform="translate(151,99)"/>
<path d="M0 0 C1.0625 1.8125 1.0625 1.8125 2 4 C1.67 4.99 1.34 5.98 1 7 C1.66 7 2.32 7 3 7 C2.34580901 12.06998019 0.1453591 16.41990777 -2 21 C-2.66 21 -3.32 21 -4 21 C-3.67 22.65 -3.34 24.3 -3 26 C-9.57142857 21 -9.57142857 21 -11 16 C-10.34 16 -9.68 16 -9 16 C-10.10787266 13.6990337 -11.25429466 11.62326716 -12.6875 9.5 C-14 7 -14 7 -13.6875 4.6875 C-13.460625 4.130625 -13.23375 3.57375 -13 3 C-11.02 5.97 -11.02 5.97 -9 9 C-8.1646875 7.88625 -8.1646875 7.88625 -7.3125 6.75 C-5.06972822 4.08292005 -2.77925025 2.08443768 0 0 Z " fill="#598D5C" transform="translate(38,107)"/>
<path d="M0 0 C2.4375 0.625 2.4375 0.625 5 2 C5.8125 5.125 5.8125 5.125 6 8 C8.31 6.02 10.62 4.04 13 2 C13 5.80345877 11.86213669 6.77701015 9.5 9.6875 C8.8503125 10.49574219 8.200625 11.30398437 7.53125 12.13671875 C7.0259375 12.75160156 6.520625 13.36648437 6 14 C6.78375 13.34 7.5675 12.68 8.375 12 C11 10 11 10 13 10 C12.4529461 16.19994418 8.22319471 19.82619938 4 24 C0.26841712 18.17542599 -2.2902379 13.04486541 -2 6 C-1.0625 2.4375 -1.0625 2.4375 0 0 Z " fill="#194650" transform="translate(25,89)"/>
<path d="M0 0 C0.66 1.32 1.32 2.64 2 4 C1.34 3.67 0.68 3.34 0 3 C-3 2.75 -3 2.75 -6 3 C-8.1385485 5.1385485 -8.42655063 6.13275314 -9 9 C-5.1146983 9.07471734 -1.75055095 8.97236506 2 8 C2.66 8.33 3.32 8.66 4 9 C3.67 10.32 3.34 11.64 3 13 C4.65 12.01 6.3 11.02 8 10 C10 12 10 12 10 15 C10.66 15 11.32 15 12 15 C12.639375 14.030625 13.27875 13.06125 13.9375 12.0625 C16 9 16 9 19 8 C18.69381595 11.67420866 18.24228216 12.78135513 15.4375 15.3125 C14.633125 15.869375 13.82875 16.42625 13 17 C13.66 17.66 14.32 18.32 15 19 C12.36 18.67 9.72 18.34 7 18 C7.33 16.68 7.66 15.36 8 14 C6.948125 14.391875 5.89625 14.78375 4.8125 15.1875 C1 16 1 16 -1.9375 14.75 C-2.618125 14.1725 -3.29875 13.595 -4 13 C-4 12.34 -4 11.68 -4 11 C-6.97 10.505 -6.97 10.505 -10 10 C-10.33 8.35 -10.66 6.7 -11 5 C-4.85714286 -0.71428571 -4.85714286 -0.71428571 0 0 Z " fill="#ADBCC2" transform="translate(62,156)"/>
<path d="M0 0 C0.99 0.33 1.98 0.66 3 1 C3.33 3.97 3.66 6.94 4 10 C5.00016187 7.99967627 5.49396008 6.16874252 6 4 C6.99 4.33 7.98 4.66 9 5 C9.33 3.68 9.66 2.36 10 1 C11.32 0.67 12.64 0.34 14 0 C14.66 1.98 15.32 3.96 16 6 C15.01 5.67 14.02 5.34 13 5 C12.608125 5.763125 12.21625 6.52625 11.8125 7.3125 C8.9058578 11.62234877 4.82529776 13.35233735 0 15 C-1.9924325 15.37593066 -3.9918674 15.71979545 -6 16 C-6.33 14.35 -6.66 12.7 -7 11 C-5.125 9.9375 -5.125 9.9375 -3 9 C-2.34 9.33 -1.68 9.66 -1 10 C-1.01160156 9.36191406 -1.02320312 8.72382813 -1.03515625 8.06640625 C-1.04417969 7.24011719 -1.05320312 6.41382813 -1.0625 5.5625 C-1.07410156 4.73878906 -1.08570312 3.91507813 -1.09765625 3.06640625 C-1 1 -1 1 0 0 Z " fill="#AFBEC4" transform="translate(125,158)"/>
<path d="M0 0 C0.33 0 0.66 0 1 0 C1.06058594 0.83402344 1.12117188 1.66804688 1.18359375 2.52734375 C1.83342882 11.28077664 1.83342882 11.28077664 2.76171875 20.0078125 C2.99007871 21.91705152 3.15281622 23.83379463 3.3125 25.75 C4.09951105 29.47041588 5.60385825 31.1246299 8 34 C7.67 34.99 7.34 35.98 7 37 C2.32307692 35.52307692 2.32307692 35.52307692 0.6875 32.875 C0.460625 32.25625 0.23375 31.6375 0 31 C-0.66 31 -1.32 31 -2 31 C-2.05883728 27.52090629 -2.09387399 24.04194326 -2.125 20.5625 C-2.14175781 19.58861328 -2.15851562 18.61472656 -2.17578125 17.61132812 C-2.21725154 11.41151925 -1.57599699 5.99995705 0 0 Z " fill="#0D3549" transform="translate(22,87)"/>
<path d="M0 0 C0.66 0.99 1.32 1.98 2 3 C3.485 3.495 3.485 3.495 5 4 C5 3.34 5 2.68 5 2 C5.66 2 6.32 2 7 2 C3.79605451 9.91461128 -6.05922455 13.83081586 -13.4609375 17 C-18.72450692 19.07303657 -23.25613367 20.2801886 -29 20 C-28.16275391 19.58427734 -28.16275391 19.58427734 -27.30859375 19.16015625 C-25.73199525 18.36785548 -24.16188483 17.56254477 -22.59765625 16.74609375 C-21.76105469 16.31425781 -20.92445312 15.88242188 -20.0625 15.4375 C-18.81146484 14.78587891 -18.81146484 14.78587891 -17.53515625 14.12109375 C-15 13 -15 13 -12.24609375 12.47265625 C-11.13427734 12.23869141 -11.13427734 12.23869141 -10 12 C-9.67 11.34 -9.34 10.68 -9 10 C-6.97262952 8.88145077 -5.0039199 8.00134396 -2.8125 7.25 C-0.64470576 6.05273288 -0.64470576 6.05273288 -0.25 2.875 C-0.1675 1.92625 -0.085 0.9775 0 0 Z " fill="#10293A" transform="translate(137,160)"/>
<path d="M0 0 C4.59770843 1.97044647 7.25091795 4.87637693 10 9 C10.639375 8.01 11.27875 7.02 11.9375 6 C12.618125 5.01 13.29875 4.02 14 3 C14.33 3 14.66 3 15 3 C14.58525633 8.28798182 13.64775386 11.11690718 10 15 C10.33 15.33 10.66 15.66 11 16 C11.33 16.66 11.66 17.32 12 18 C7.05 24.435 7.05 24.435 2 31 C2 28 2 28 3.9375 25.375 C6.46547535 21.23831306 7.38338802 17.84463049 7 13 C5.35880914 9.70472904 5.35880914 9.70472904 3 7 C0 2.28571429 0 2.28571429 0 0 Z " fill="#87BD66" transform="translate(150,107)"/>
<path d="M0 0 C0.94875 0.04125 1.8975 0.0825 2.875 0.125 C3.56207555 2.61564888 3.875 4.50386292 3.875 7.125 C4.205 6.135 4.535 5.145 4.875 4.125 C6.525 4.125 8.175 4.125 9.875 4.125 C10.205 6.105 10.535 8.085 10.875 10.125 C9.885 10.125 8.895 10.125 7.875 10.125 C7.545 9.795 7.215 9.465 6.875 9.125 C5.885 10.61 5.885 10.61 4.875 12.125 C2.9296875 12.63671875 2.9296875 12.63671875 0.75 12.8125 C-0.52875 12.915625 -1.8075 13.01875 -3.125 13.125 C-3.125 12.465 -3.125 11.805 -3.125 11.125 C-2.485625 11.021875 -1.84625 10.91875 -1.1875 10.8125 C-0.1665625 10.4721875 -0.1665625 10.4721875 0.875 10.125 C1.205 9.135 1.535 8.145 1.875 7.125 C0.885 7.125 -0.105 7.125 -1.125 7.125 C-1.125 6.465 -1.125 5.805 -1.125 5.125 C-0.465 4.795 0.195 4.465 0.875 4.125 C1.205 3.135 1.535 2.145 1.875 1.125 C-2.4840077 4.61220616 -3.07052183 7.85260915 -4.125 13.125 C-4.455 13.125 -4.785 13.125 -5.125 13.125 C-5.125 0.205 -5.125 0.205 0 0 Z " fill="#B8C5CB" transform="translate(106.125,164.875)"/>
<path d="M0 0 C0.89074219 -0.01224609 1.78148438 -0.02449219 2.69921875 -0.03710938 C8.93659957 -0.05068858 14.68542757 0.74335937 20.75 2.1875 C16.88198238 4.76617841 13.82530474 4.34503069 9.36328125 4.1640625 C8.54627243 4.13903656 7.72926361 4.11401062 6.88749695 4.08822632 C4.27873963 4.00607276 1.67074468 3.90946612 -0.9375 3.8125 C-2.70634909 3.75425563 -4.47522945 3.69695245 -6.24414062 3.640625 C-10.57986534 3.50050101 -14.91496188 3.34741319 -19.25 3.1875 C-13.48762705 -0.65408197 -6.70771859 0.00477078 0 0 Z " fill="#2E404F" transform="translate(94.25,31.8125)"/>
<path d="M0 0 C-0.48766846 0.25579834 -0.97533691 0.51159668 -1.4777832 0.77514648 C-13.71534935 7.24487142 -25.56731428 13.65949161 -34 25 C-34.33 24.01 -34.66 23.02 -35 22 C-11.38433252 -3.35495559 -11.38433252 -3.35495559 0 0 Z " fill="#132535" transform="translate(71,38)"/>
<path d="M0 0 C0.33 0.66 0.66 1.32 1 2 C0.67 2.99 0.34 3.98 0 5 C0.66 5 1.32 5 2 5 C1.34580901 10.06998019 -0.8546409 14.41990777 -3 19 C-3.66 19 -4.32 19 -5 19 C-6.22907049 15.63585848 -7.02487123 12.59638043 -7 9 C-5.14149203 5.52229878 -2.7659849 2.79297012 0 0 Z " fill="#18454F" transform="translate(39,109)"/>
<path d="M0 0 C2 3 2 3 2 6 C2.99 6.33 3.98 6.66 5 7 C5 7.66 5 8.32 5 9 C4.34 9 3.68 9 3 9 C3.95509784 11.75116234 4.91393982 14.50092088 5.875 17.25 C6.14441406 18.02730469 6.41382813 18.80460937 6.69140625 19.60546875 C6.95566406 20.35957031 7.21992188 21.11367187 7.4921875 21.890625 C7.73308105 22.58188477 7.97397461 23.27314453 8.22216797 23.98535156 C9.02559022 26.06628076 9.97201928 28.021622 11 30 C10.34 30.33 9.68 30.66 9 31 C-2.74980946 9.61534679 -2.74980946 9.61534679 0 0 Z " fill="#152636" transform="translate(22,116)"/>
<path d="M0 0 C0.66 0 1.32 0 2 0 C4.92857143 16.10714286 4.92857143 16.10714286 1 22 C1 21.34 1 20.68 1 20 C0.34 20 -0.32 20 -1 20 C-1 17.69 -1 15.38 -1 13 C-1.66 13 -2.32 13 -3 13 C-3 12.01 -3 11.02 -3 10 C-2.34 9.67 -1.68 9.34 -1 9 C-0.53348793 6.87423218 -0.53348793 6.87423218 -0.375 4.4375 C-0.30023438 3.61121094 -0.22546875 2.78492187 -0.1484375 1.93359375 C-0.09945312 1.29550781 -0.05046875 0.65742187 0 0 Z " fill="#0C293B" transform="translate(167,96)"/>
<path d="M0 0 C7.66900079 7.02221759 12.83085472 17.64471325 14 28 C13.02734375 30.2421875 13.02734375 30.2421875 12 32 C11.84144531 31.34515625 11.68289062 30.6903125 11.51953125 30.015625 C9.34611687 21.51409251 6.7615658 12.70672902 1.6875 5.4375 C0 3 0 3 0 0 Z " fill="#142637" transform="translate(154,62)"/>
<path d="M0 0 C-0.57352893 3.87132028 -2.48704352 6.08172796 -5 9 C-4.01 9.66 -3.02 10.32 -2 11 C-6.75 15 -6.75 15 -9 15 C-9 15.66 -9 16.32 -9 17 C-9.66 17 -10.32 17 -11 17 C-11 13.7 -11 10.4 -11 7 C-10.34 7 -9.68 7 -9 7 C-8.67 7.66 -8.34 8.32 -8 9 C-7.566875 8.071875 -7.13375 7.14375 -6.6875 6.1875 C-3.41176471 0 -3.41176471 0 0 0 Z " fill="#77AA62" transform="translate(42,74)"/>
<path d="M0 0 C0.66 0 1.32 0 2 0 C1.4529461 6.19994418 -2.77680529 9.82619938 -7 14 C-11.59225513 5.738041 -11.59225513 5.738041 -11 1 C-9.10786631 3.38573379 -7.97608217 5.07175348 -7 8 C-6.27683594 7.13375 -6.27683594 7.13375 -5.5390625 6.25 C-4.90742188 5.5075 -4.27578125 4.765 -3.625 4 C-2.99851562 3.2575 -2.37203125 2.515 -1.7265625 1.75 C-0.87191406 0.88375 -0.87191406 0.88375 0 0 Z " fill="#B5EE6F" transform="translate(36,99)"/>
<path d="M0 0 C3.88019859 1.25844278 5.9411842 2.42416203 8 6 C8 6.99 8 7.98 8 9 C8.66 9 9.32 9 10 9 C10.12375 8.21625 10.2475 7.4325 10.375 6.625 C11 4 11 4 13 2 C12.58525633 7.28798182 11.64775386 10.11690718 8 14 C7.4225 13.113125 6.845 12.22625 6.25 11.3125 C4.83788868 9.17416 3.40575495 7.29020731 1.75 5.3125 C0 3 0 3 0 0 Z " fill="#B1E96E" transform="translate(151,99)"/>
<path d="M0 0 C0.66 0 1.32 0 2 0 C2.19294408 4.82360189 1.75747614 8.49646738 0 13 C-1.66666667 11.33333333 -3.33333333 9.66666667 -5 8 C-5.928125 7.113125 -6.85625 6.22625 -7.8125 5.3125 C-10 3 -10 3 -10 1 C-6.62496331 2.1858237 -4.35277269 3.27573689 -2 6 C-1.34 4.02 -0.68 2.04 0 0 Z " fill="#B0E96E" transform="translate(160,90)"/>
<path d="M0 0 C0.33 0 0.66 0 1 0 C0.67 10.23 0.34 20.46 0 31 C-0.66 31 -1.32 31 -2 31 C-2.05883728 27.52090629 -2.09387399 24.04194326 -2.125 20.5625 C-2.14175781 19.58861328 -2.15851562 18.61472656 -2.17578125 17.61132812 C-2.21725154 11.41151925 -1.57599699 5.99995705 0 0 Z " fill="#2A3847" transform="translate(22,87)"/>
<path d="M0 0 C0.66 0 1.32 0 2 0 C1.69381595 3.67420866 1.24228216 4.78135513 -1.5625 7.3125 C-2.366875 7.869375 -3.17125 8.42625 -4 9 C-3.34 9.66 -2.68 10.32 -2 11 C-4.64 10.67 -7.28 10.34 -10 10 C-9.67 8.68 -9.34 7.36 -9 6 C-10.32 6.33 -11.64 6.66 -13 7 C-12.34 5.68 -11.68 4.36 -11 3 C-10.01 3 -9.02 3 -8 3 C-7.67 4.32 -7.34 5.64 -7 7 C-6.34 7 -5.68 7 -5 7 C-3.61876037 5.03277992 -2.28511874 3.03131672 -1 1 C-0.67 0.67 -0.34 0.34 0 0 Z " fill="#B7C4CA" transform="translate(79,164)"/>
<path d="M0 0 C0.99 0.33 1.98 0.66 3 1 C3.33 2.98 3.66 4.96 4 7 C6.31 5.02 8.62 3.04 11 1 C11 4.77910478 10.00296038 5.46106101 7.5 8.1875 C6.8503125 8.90292969 6.200625 9.61835937 5.53125 10.35546875 C5.0259375 10.89816406 4.520625 11.44085938 4 12 C1.95780294 10.30820672 1.08206694 9.36272334 0.48828125 6.73828125 C0.43027344 5.93777344 0.37226563 5.13726562 0.3125 4.3125 C0.24675781 3.50425781 0.18101563 2.69601563 0.11328125 1.86328125 C0.07589844 1.24839844 0.03851562 0.63351563 0 0 Z " fill="#9DD56A" transform="translate(27,90)"/>
<path d="M0 0 C0.66 0.99 1.32 1.98 2 3 C2.99 3.33 3.98 3.66 5 4 C5 3.34 5 2.68 5 2 C5.66 2 6.32 2 7 2 C5.5741914 5.45195767 3.90253666 7.1014256 0.875 9.25 C0.15054688 9.77078125 -0.57390625 10.2915625 -1.3203125 10.828125 C-1.87460938 11.21484375 -2.42890625 11.6015625 -3 12 C-4.32 11.34 -5.64 10.68 -7 10 C-6.030625 9.46375 -5.06125 8.9275 -4.0625 8.375 C-0.72464389 6.27994174 -0.72464389 6.27994174 -0.125 2.75 C-0.08375 1.8425 -0.0425 0.935 0 0 Z " fill="#162E3F" transform="translate(137,160)"/>
<path d="M0 0 C2.31 0 4.62 0 7 0 C7.33 0.66 7.66 1.32 8 2 C9.97522846 3.04808041 11.97481509 4.0520411 14 5 C14 5.99 14 6.98 14 8 C10.0397381 7.43726296 7.47032673 6.26476935 4.1875 4 C3.39730469 3.46375 2.60710938 2.9275 1.79296875 2.375 C1.20128906 1.92125 0.60960937 1.4675 0 1 C0 0.67 0 0.34 0 0 Z " fill="#10293A" transform="translate(51,167)"/>
<path d="M0 0 C1.74271938 2.297221 3.39911152 4.59866729 5 7 C6.32 5.02 7.64 3.04 9 1 C9.66 1.99 10.32 2.98 11 4 C8.7864464 6.82418907 6.56561005 9.49320049 4 12 C3.13058506 10.76055724 2.27994543 9.50792941 1.4375 8.25 C0.96183594 7.55390625 0.48617188 6.8578125 -0.00390625 6.140625 C-1 4 -1 4 -0.65234375 1.734375 C-0.43707031 1.16203125 -0.22179687 0.5896875 0 0 Z " fill="#285652" transform="translate(25,105)"/>
<path d="M0 0 C1.65 0 3.3 0 5 0 C5.33 1.98 5.66 3.96 6 6 C5.01 6 4.02 6 3 6 C2.67 5.67 2.34 5.34 2 5 C1.01 6.485 1.01 6.485 0 8 C-1.9453125 8.51171875 -1.9453125 8.51171875 -4.125 8.6875 C-6.043125 8.8421875 -6.043125 8.8421875 -8 9 C-8 8.34 -8 7.68 -8 7 C-7.38125 6.87625 -6.7625 6.7525 -6.125 6.625 C-3.80879168 6.12802644 -3.80879168 6.12802644 -2 4 C-1.67 4.33 -1.34 4.66 -1 5 C-0.67 3.35 -0.34 1.7 0 0 Z " fill="#8CA1AA" transform="translate(111,169)"/>
<path d="M0 0 C0.66 0 1.32 0 2 0 C3.48046875 1.72265625 3.48046875 1.72265625 5.1875 4.0625 C8.47888473 8.4280605 12.0478377 12.23553934 16 16 C16.66 16.66 17.32 17.32 18 18 C13.45173953 18 11.54366741 15.28621909 8.296875 12.3046875 C0 3.97959184 0 3.97959184 0 0 Z " fill="#162535" transform="translate(33,148)"/>
<path d="M0 0 C0.99 0.33 1.98 0.66 3 1 C2.34 2.32 1.68 3.64 1 5 C3.37374861 5.33425735 3.37374861 5.33425735 6 5 C7.63676257 3.0399719 7.63676257 3.0399719 9 1 C9.99 1 10.98 1 12 1 C11.34 2.98 10.68 4.96 10 7 C5.83861737 7.08159574 2.0527516 6.98248524 -2 6 C-1.125 1.125 -1.125 1.125 0 0 Z " fill="#375A6A" transform="translate(68,169)"/>
<path d="M0 0 C8.00890469 0.20535653 13.71148799 6.57987343 19 12 C18.01 12.33 17.02 12.66 16 13 C16 12.34 16 11.68 16 11 C15.44570312 10.7421875 14.89140625 10.484375 14.3203125 10.21875 C11.6788894 8.83133585 9.3138496 7.21811494 6.875 5.5 C6.00617188 4.8915625 5.13734375 4.283125 4.2421875 3.65625 C2 2 2 2 0 0 Z " fill="#0F2132" transform="translate(129,42)"/>
<path d="M0 0 C3.36720387 1.39332574 4.9859524 2.9789286 7 6 C7.66 4.35 8.32 2.7 9 1 C10.37432457 4.81756824 9.67975039 8.07255329 9 12 C8.34 12 7.68 12 7 12 C6.608125 11.05125 6.21625 10.1025 5.8125 9.125 C3.76459528 5.59412979 2.75702252 5.18642816 -1 4 C-1.33 3.34 -1.66 2.68 -2 2 C-1.34 2 -0.68 2 0 2 C0 1.34 0 0.68 0 0 Z " fill="#225051" transform="translate(152,96)"/>
<path d="M0 0 C0.66 0 1.32 0 2 0 C1.42242224 4.22786917 -0.02848 7.10251786 -2.3125 10.6875 C-2.90675781 11.64011719 -3.50101563 12.59273437 -4.11328125 13.57421875 C-5.98267717 15.97772779 -7.1916962 16.93991181 -10 18 C-9.56945312 17.29230469 -9.13890625 16.58460938 -8.6953125 15.85546875 C-7.02324434 13.03915118 -5.43778911 10.19070205 -3.875 7.3125 C-3.09769531 5.88357422 -3.09769531 5.88357422 -2.3046875 4.42578125 C-1.51682034 2.96091447 -0.7438507 1.48770141 0 0 Z " fill="#132434" transform="translate(161,137)"/>
<path d="M0 0 C0.66 0 1.32 0 2 0 C0.35433477 5.68502535 -2.29032784 10.76681636 -5 16 C-5.66 16 -6.32 16 -7 16 C-6.67698799 9.86277186 -3.6043679 4.83769272 0 0 Z " fill="#17293A" transform="translate(33,64)"/>
<path d="M0 0 C0.33 0.99 0.66 1.98 1 3 C-0.3984375 5.48046875 -0.3984375 5.48046875 -2.375 8.1875 C-3.02210937 9.08855469 -3.66921875 9.98960938 -4.3359375 10.91796875 C-4.88507812 11.60503906 -5.43421875 12.29210937 -6 13 C-6.33 13 -6.66 13 -7 13 C-7.34751969 10.08083462 -7.53280018 7.86804524 -5.95703125 5.30078125 C-4.15362765 3.11660035 -2.55587616 1.27793808 0 0 Z " fill="#B9F370" transform="translate(38,107)"/>
<path d="M0 0 C1.67542976 0.28604898 3.34385343 0.61781233 5 1 C5 1.99 5 2.98 5 4 C5.66 4.33 6.32 4.66 7 5 C2.56923077 7.09230769 2.56923077 7.09230769 -0.3125 6.625 C-0.869375 6.41875 -1.42625 6.2125 -2 6 C-1.125 1.125 -1.125 1.125 0 0 Z " fill="#869BA5" transform="translate(120,167)"/>
<path d="M0 0 C3.38019657 1.44865567 5.73059668 3.08219573 8 6 C8.25 9.25 8.25 9.25 8 12 C4.72257902 8.89973691 2.06895163 6.02901106 0 2 C0 1.34 0 0.68 0 0 Z " fill="#B1E96E" transform="translate(150,107)"/>
<path d="M0 0 C2.73277221 2.17220355 4.72888915 3.85827965 5.5546875 7.3359375 C5.78650022 9.56274452 5.94637012 11.76217118 6 14 C2.81318137 11.06312793 1.5010482 8.07427367 0 4 C0 2.68 0 1.36 0 0 Z " fill="#B7F16F" transform="translate(149,114)"/>
<path d="M0 0 C0.93045933 2.55144824 1.08564091 3.74006478 0.22265625 6.359375 C-0.16019531 7.14828125 -0.54304688 7.9371875 -0.9375 8.75 C-1.50791016 9.94882813 -1.50791016 9.94882813 -2.08984375 11.171875 C-2.39019531 11.77515625 -2.69054688 12.3784375 -3 13 C-3.66 13 -4.32 13 -5 13 C-5.50477602 7.69985182 -4.20817314 5.18034682 -1 1 C-0.67 0.67 -0.34 0.34 0 0 Z " fill="#A6DE6C" transform="translate(39,115)"/>
<path d="M0 0 C0.66 0.33 1.32 0.66 2 1 C2 1.66 2 2.32 2 3 C6.455 3.99 6.455 3.99 11 5 C11 6.32 11 7.64 11 9 C9.37276701 8.54965877 7.74826336 8.08944646 6.125 7.625 C5.22007813 7.36976563 4.31515625 7.11453125 3.3828125 6.8515625 C1 6 1 6 -1 4 C-0.625 1.875 -0.625 1.875 0 0 Z " fill="#203747" transform="translate(65,171)"/>
<path d="M0 0 C0 4.64029623 -0.29571768 6.24418483 -3.5625 9.75 C-4.7690625 10.86375 -4.7690625 10.86375 -6 12 C-6 9.69 -6 7.38 -6 5 C-5.01 4.67 -4.02 4.34 -3 4 C-3 3.34 -3 2.68 -3 2 C-2.01 1.34 -1.02 0.68 0 0 Z " fill="#245252" transform="translate(36,87)"/>
<path d="M0 0 C0.928125 1.175625 0.928125 1.175625 1.875 2.375 C3.89858661 4.96837647 3.89858661 4.96837647 6 7 C5.67 7.99 5.34 8.98 5 10 C2.525 9.01 2.525 9.01 0 8 C-0.38063221 5.6739143 -0.71269945 3.33944736 -1 1 C-0.67 0.67 -0.34 0.34 0 0 Z " fill="#16434F" transform="translate(24,114)"/>
<path d="M0 0 C0.66 0.33 1.32 0.66 2 1 C2.125 3.875 2.125 3.875 2 7 C1.34 7.66 0.68 8.32 0 9 C-2.64 7.02 -5.28 5.04 -8 3 C-7.67 2.34 -7.34 1.68 -7 1 C-2.125 3.875 -2.125 3.875 -1 5 C-0.67 3.35 -0.34 1.7 0 0 Z " fill="#91C868" transform="translate(157,82)"/>
<path d="M0 0 C1.9924325 0.37593066 3.9918674 0.71979545 6 1 C6 1.33 6 1.66 6 2 C3.89646505 2.0810206 1.79204048 2.13919907 -0.3125 2.1875 C-1.48425781 2.22230469 -2.65601562 2.25710937 -3.86328125 2.29296875 C-7 2 -7 2 -8.91796875 0.48828125 C-9.27503906 -0.00285156 -9.63210937 -0.49398437 -10 -1 C-5.85023673 -2.18564665 -3.89271375 -1.70899628 0 0 Z " fill="#102435" transform="translate(85,179)"/>
<path d="M0 0 C1.32 0 2.64 0 4 0 C4 1.65 4 3.3 4 5 C2.35 5.33 0.7 5.66 -1 6 C-1.625 4.125 -1.625 4.125 -2 2 C-1.34 1.34 -0.68 0.68 0 0 Z " fill="#8BA0A9" transform="translate(82,171)"/>
<path d="M0 0 C0.33 0 0.66 0 1 0 C0.65697965 5.98511371 0.17692157 10.75117306 -3 16 C-4.49828872 12.11764181 -3.43110582 9.56550712 -2.0625 5.75 C-1.68222656 4.67234375 -1.30195313 3.5946875 -0.91015625 2.484375 C-0.45962891 1.25460938 -0.45962891 1.25460938 0 0 Z " fill="#0C1E2F" transform="translate(167,120)"/>
<path d="M0 0 C0.99 0.33 1.98 0.66 3 1 C2.55269531 1.36351562 2.10539062 1.72703125 1.64453125 2.1015625 C-2.38793652 5.4547873 -5.76004454 8.87642033 -9 13 C-9.33 12.01 -9.66 11.02 -10 10 C-6.7 6.7 -3.4 3.4 0 0 Z " fill="#091A2B" transform="translate(46,50)"/>
<path d="M0 0 C0.66 0 1.32 0 2 0 C2.19294408 4.82360189 1.75747614 8.49646738 0 13 C-2 11 -2 11 -2.01171875 8.90625 C-1.90472656 8.1121875 -1.79773438 7.318125 -1.6875 6.5 C-1.58824219 5.7059375 -1.48898438 4.911875 -1.38671875 4.09375 C-1 2 -1 2 0 0 Z " fill="#96CE69" transform="translate(160,90)"/>
<path d="M0 0 C2.00720923 0.28674418 4.0085944 0.61866701 6 1 C6 2.98 6 4.96 6 7 C5.01 7 4.02 7 3 7 C3 5.68 3 4.36 3 3 C1.68 4.32 0.36 5.64 -1 7 C-1.04254356 5.00045254 -1.04080783 2.99958364 -1 1 C-0.67 0.67 -0.34 0.34 0 0 Z " fill="#B0BEC4" transform="translate(88,171)"/>
<path d="M0 0 C2 3 2 3 2 6 C2.99 6.33 3.98 6.66 5 7 C5 7.66 5 8.32 5 9 C4.34 9 3.68 9 3 9 C2.67 9.66 2.34 10.32 2 11 C1.34 10.67 0.68 10.34 0 10 C-1.29411765 2.58823529 -1.29411765 2.58823529 0 0 Z " fill="#0E2A3C" transform="translate(22,116)"/>
<path d="M0 0 C-4.61012242 2.95047835 -7.36529617 4.5497272 -13 4 C-8.93522219 0.68795882 -5.26054188 -1.94834884 0 0 Z " fill="#1B2D3C" transform="translate(71,38)"/>
<path d="M0 0 C0.33 0 0.66 0 1 0 C0.50769231 6.4 0.50769231 6.4 -2.0625 9.4375 C-2.701875 9.953125 -3.34125 10.46875 -4 11 C-4.56531239 6.1948447 -2.88324916 3.75696103 0 0 Z " fill="#A4DC6C" transform="translate(164,110)"/>
<path d="M0 0 C0 4.31618166 -2.13270348 5.92789659 -5 9 C-5.66 9 -6.32 9 -7 9 C-6.82374165 6.62051228 -6.30280227 5.29774151 -4.59765625 3.62109375 C-3.09350908 2.37884514 -1.54870149 1.18623944 0 0 Z " fill="#B5ED6F" transform="translate(38,91)"/>
<path d="M0 0 C3.17218843 3.62535821 4.42902597 7.51150278 6 12 C5.01 12.495 5.01 12.495 4 13 C-0.59225513 4.738041 -0.59225513 4.738041 0 0 Z " fill="#97CE69" transform="translate(25,100)"/>
<path d="M0 0 C4.3177458 0.50797009 8.03302114 1.19682779 12 3 C11.67 3.99 11.34 4.98 11 6 C9.53919067 5.38080922 8.08142545 4.75443308 6.625 4.125 C5.81289062 3.77695312 5.00078125 3.42890625 4.1640625 3.0703125 C2 2 2 2 0 0 Z " fill="#0E2031" transform="translate(116,36)"/>
<path d="M0 0 C0.33 0.66 0.66 1.32 1 2 C-3.53701494 3.45184478 -7.18061476 4.23509196 -12 4 C-11.1028125 3.566875 -11.1028125 3.566875 -10.1875 3.125 C-3.7201087 -0.20108696 -3.7201087 -0.20108696 0 0 Z " fill="#0B2031" transform="translate(120,176)"/>
<path d="M0 0 C3.16115776 1.36983503 3.9927092 1.9890638 6 5 C5.625 7.1875 5.625 7.1875 5 9 C0 3.375 0 3.375 0 0 Z " fill="#A4DB6C" transform="translate(148,74)"/>
<path d="M0 0 C3.67230705 3.07999946 4.56802365 5.2482602 5 10 C1.32769295 6.92000054 0.43197635 4.7517398 0 0 Z " fill="#AAE16D" transform="translate(24,110)"/>
<path d="M0 0 C0.33 0 0.66 0 1 0 C0.58525633 5.28798182 -0.35224614 8.11690718 -4 12 C-4.33 11.01 -4.66 10.02 -5 9 C-4.67 8.34 -4.34 7.68 -4 7 C-3.34 7 -2.68 7 -2 7 C-1.855625 6.21625 -1.71125 5.4325 -1.5625 4.625 C-1 2 -1 2 0 0 Z " fill="#9ED46A" transform="translate(163,101)"/>
<path d="M0 0 C-0.34879632 3.25543229 -1.02133261 4.01873107 -3.5625 6.25 C-4.366875 6.8275 -5.17125 7.405 -6 8 C-5.62403791 5.21788056 -5.32681541 3.4120716 -3.5625 1.1875 C-2 0 -2 0 0 0 Z " fill="#A9E16D" transform="translate(42,74)"/>
<path d="M0 0 C0.66 0 1.32 0 2 0 C1.67 1.65 1.34 3.3 1 5 C-0.65 5.33 -2.3 5.66 -4 6 C-1.125 1.125 -1.125 1.125 0 0 Z " fill="#A0B1B9" transform="translate(79,164)"/>
<path d="M0 0 C0.66 0 1.32 0 2 0 C3.5078125 1.75 3.5078125 1.75 5.125 4 C5.66382813 4.7425 6.20265625 5.485 6.7578125 6.25 C7.16773438 6.8275 7.57765625 7.405 8 8 C7.67 8.66 7.34 9.32 7 10 C5.82739389 8.71372289 4.6620717 7.42080217 3.5 6.125 C2.8503125 5.40570313 2.200625 4.68640625 1.53125 3.9453125 C0 2 0 2 0 0 Z " fill="#9CD26A" transform="translate(27,123)"/>
<path d="M0 0 C0.33 0.66 0.66 1.32 1 2 C0.67 2.99 0.34 3.98 0 5 C0.66 5 1.32 5 2 5 C1.67 5.99 1.34 6.98 1 8 C0.01 8 -0.98 8 -2 8 C-2 7.34 -2 6.68 -2 6 C-2.66 5.67 -3.32 5.34 -4 5 C-2.68 3.35 -1.36 1.7 0 0 Z " fill="#255452" transform="translate(39,109)"/>
<path d="M0 0 C0.33 0.99 0.66 1.98 1 3 C-0.32 4.32 -1.64 5.64 -3 7 C-3 6.34 -3 5.68 -3 5 C-3.66 4.67 -4.32 4.34 -5 4 C-3.35 2.68 -1.7 1.36 0 0 Z " fill="#AFE86E" transform="translate(38,107)"/>
<path d="M0 0 C2.83374881 3.20336822 3.5205537 5.78087253 4 10 C1.4375 7.8125 1.4375 7.8125 -1 5 C-0.8125 2.1875 -0.8125 2.1875 0 0 Z " fill="#1C4950" transform="translate(25,105)"/>
<path d="M0 0 C0.66 0.33 1.32 0.66 2 1 C1.67 2.98 1.34 4.96 1 7 C-1.97 6.505 -1.97 6.505 -5 6 C-4.360625 5.7525 -3.72125 5.505 -3.0625 5.25 C-0.81258459 4.18437567 -0.81258459 4.18437567 -0.25 1.875 C-0.1675 1.25625 -0.085 0.6375 0 0 Z " fill="#21495B" transform="translate(86,172)"/>
<path d="M0 0 C1.65 0.33 3.3 0.66 5 1 C4.67 2.32 4.34 3.64 4 5 C2.35 4.67 0.7 4.34 -1 4 C-0.67 2.68 -0.34 1.36 0 0 Z " fill="#6B8490" transform="translate(61,164)"/>
<path d="M0 0 C1.32 0 2.64 0 4 0 C4.33 1.98 4.66 3.96 5 6 C4.01 6 3.02 6 2 6 C0 3 0 3 0 0 Z " fill="#AEBDC3" transform="translate(112,169)"/>
<path d="M0 0 C0.99 0.33 1.98 0.66 3 1 C3 2.32 3 3.64 3 5 C1.68 5 0.36 5 -1 5 C-0.67 3.35 -0.34 1.7 0 0 Z " fill="#90A4AD" transform="translate(125,158)"/>
<path d="M0 0 C1.65 1.65 3.3 3.3 5 5 C3.02 5.99 3.02 5.99 1 7 C0.67 4.69 0.34 2.38 0 0 Z " fill="#A2D96B" transform="translate(149,114)"/>
<path d="M0 0 C-0.33 1.32 -0.66 2.64 -1 4 C-2.32 4 -3.64 4 -5 4 C-5 3.01 -5 2.02 -5 1 C-3 0 -3 0 0 0 Z " fill="#083347" transform="translate(108,172)"/>
<path d="M0 0 C0.66 1.98 1.32 3.96 2 6 C1.01 5.67 0.02 5.34 -1 5 C-1.33 4.34 -1.66 3.68 -2 3 C-2.66 3 -3.32 3 -4 3 C-4 2.34 -4 1.68 -4 1 C-2 0 -2 0 0 0 Z " fill="#ADBCC3" transform="translate(139,158)"/>
<path d="M0 0 C1.99097846 2.98646769 2.94124926 5.59687262 4 9 C3.01 9.495 3.01 9.495 2 10 C0.39644899 6.49223216 -0.22036864 3.85645121 0 0 Z " fill="#07192B" transform="translate(23,124)"/>
<path d="M0 0 C0.93065133 2.60582371 1.14917407 3.64198224 0.0625 6.25 C-0.4634375 7.11625 -0.4634375 7.11625 -1 8 C-1.66 6.68 -2.32 5.36 -3 4 C-2.01 2.68 -1.02 1.36 0 0 Z " fill="#B8F170" transform="translate(39,115)"/>
</svg>
